<?xml version="1.0" encoding="UTF-8" standalone="no"?><!DOCTYPE svg PUBLIC "-//W3C//DTD SVG 1.1//EN" "http://www.w3.org/Graphics/SVG/1.1/DTD/svg11.dtd"><svg width="100%" height="100%" viewBox="0 0 581 222" version="1.1" xmlns="http://www.w3.org/2000/svg" xmlns:xlink="http://www.w3.org/1999/xlink" xml:space="preserve" xmlns:serif="http://www.serif.com/" style="fill-rule:evenodd;clip-rule:evenodd;stroke-linecap:round;stroke-linejoin:round;stroke-miterlimit:1.5;"><g id="applelogo"><path d="M341.521,51.708c-1.875,-7.105 -1.855,-15.816 1.239,-23.25c9.206,-22.125 36,-27 36,-27c-0,0 11.25,13.125 12.75,29.25c0.567,6.103 -1.375,12.625 -3.75,18c-2.375,5.375 -5.583,10.989 -10.5,14.25c-5.625,3.731 -17.294,10.01 -23.25,8.135c-5.957,-1.875 -10.614,-12.279 -12.489,-19.385Z" style="fill:#0acc6d;stroke:#000;stroke-width:2.92px;"/><path d="M327.76,36.794l-3.75,7.414c-0,0 9.034,8.768 13.5,22.5c2.944,9.055 7.25,10 8.25,9c1,-1 -0.75,-10.25 -2.25,-15c-1.5,-4.75 -4.125,-9.514 -6.75,-13.5c-2.524,-3.831 -9,-10.414 -9,-10.414Z" style="fill:#6f4e35;stroke:#000;stroke-width:2.92px;"/><path d="M312.135,61.458c-34.431,1.218 -81.301,38.601 -33.125,114.75c25.715,40.646 43.073,43.818 51,43.904c9.96,0.108 14.515,-11.998 19.044,-11.769c4.79,0.242 7.14,12.49 18.374,11.769c8.695,-0.558 39.117,-22.039 48.444,-48.211c5.241,-14.704 9.944,-29.767 4.888,-45.193c-2.727,-8.318 6.04,-15.78 4.695,-28.5c-3.773,-35.696 -35.712,-36.251 -43.695,-36.217c-12.208,0.052 -24.102,9.509 -35.706,9.42c-11.604,-0.089 -18.77,-10.488 -33.919,-9.953Z" style="fill:#ea4b3c;stroke:#000;stroke-width:2.92px;"/><path d="M304.779,191.208c2.182,2.449 4.632,4.701 7.356,6.75" style="fill:none;stroke:#000;stroke-width:2.92px;"/><path d="M308.457,71.434c-6.096,-0.5 -33.331,6.845 -40.053,37.245c-4.649,21.022 4.853,40.337 16.053,58.057" style="fill:none;stroke:#000;stroke-width:2.92px;"/><path d="M288.76,171.708c6.13,7.903 2.723,3.989 10.5,12.75" style="fill:none;stroke:#000;stroke-width:2.92px;"/></g><text x="-6.512px" y="216.31px" style="font-family:'AmaticSC-Regular', 'Amatic SC';font-size:182.49px;">C<tspan x="28.719px 68.007px 107.296px 140.926px 169.751px 210.321px " y="216.31px 216.31px 216.31px 216.31px 216.31px 216.31px ">OOKING</tspan></text><text x="431.401px" y="216.257px" style="font-family:'AmaticSC-Regular', 'Amatic SC';font-size:185.031px;">P<tspan x="460.234px 497.111px 522.915px 548.927px " y="216.257px 216.257px 216.257px 216.257px ">ALEO</tspan></text></svg>